<svg width="28" height="29" viewBox="0 0 28 29" fill="none" xmlns="http://www.w3.org/2000/svg">
<path d="M14 1.5L8 5L5 7.5L4 16.5L6 23.5L10 25L19 23.5L22 17L22.5 8L14 1.5Z" fill="#FFFFFF"/>
<path d="M23.1418 25.847C24.095 25.2631 24.9633 24.5507 25.7221 23.7298C26.5823 22.7444 27.3158 21.6553 27.9055 20.4878C27.1533 21.9365 26.1445 23.2367 24.9282 24.3253C25.732 23.5087 26.4626 22.6231 27.1115 21.6788C24.5974 25.053 17.1871 28.295 12.8204 26.7071C12.5558 26.5748 13.2174 26.6409 13.2174 26.5748C16.6464 26.7767 20.0186 25.6305 22.6144 23.3809C25.2102 21.1312 26.824 17.9561 27.1115 14.5332V13.7392C27.1582 10.7428 26.1813 7.82003 24.3422 5.4539C22.503 3.08777 19.9117 1.41986 16.9964 0.725731C14.081 0.0316028 11.0161 0.352798 8.30803 1.63625C5.59994 2.9197 3.41072 5.0886 2.10208 7.78461C0.375248 11.2154 0.0812326 15.1915 1.28465 18.8389C2.48807 22.4864 5.09045 25.5068 8.51985 27.2364C8.3142 27.1151 8.11541 26.9826 7.92438 26.8394C9.22117 27.5856 10.628 28.1216 12.0926 28.4273C10.855 28.1875 9.65389 27.7871 8.51985 27.2364C11.828 29.2213 16.9225 29.0228 20.4291 27.5672L19.3043 27.898C18.3105 28.1777 17.2907 28.3551 16.2609 28.4273L19.3043 27.898C20.3922 27.589 21.437 27.1444 22.414 26.5748C22.2817 26.5748 22.414 26.5748 22.811 26.244C23.2727 25.9659 23.7148 25.6564 24.1342 25.3177H24.2004C25.0415 24.6152 25.7966 23.8157 26.4499 22.9358L25.7221 23.7298C24.9578 24.5714 24.0645 25.2861 23.0756 25.847M16.9225 7.32147C17.2166 7.22149 17.5291 7.18744 17.8378 7.22174C18.1465 7.25605 18.4439 7.35786 18.7089 7.51996C19.3656 7.84068 19.9507 8.29077 20.4291 8.84321C21.3554 10.1003 20.3629 11.5559 19.5028 12.5483C18.5473 13.6182 17.343 14.4362 15.9962 14.9302C15.7316 14.9963 15.0038 15.1287 14.9376 15.3271C14.857 15.6977 14.857 16.0813 14.9376 16.4519C15.0038 16.9812 15.2023 17.7752 15.8639 17.9736C16.1612 18.0728 16.4795 18.092 16.7866 18.0293C17.0937 17.9666 17.3789 17.8241 17.6136 17.6163C17.8482 17.4085 18.024 17.1426 18.1234 16.8453C18.2227 16.548 18.2421 16.2298 18.1796 15.9226C18.1732 15.7664 18.1511 15.6112 18.1134 15.4595C18.0504 15.3342 18.0059 15.2005 17.9811 15.0625C17.9811 14.6655 18.4442 14.7317 18.6427 14.864C19.3043 15.1287 19.5028 15.261 19.4367 15.8564C19.3264 16.6049 18.9526 17.2894 18.3825 17.7867C17.8124 18.284 17.0835 18.5614 16.327 18.5691C14.4745 18.6353 13.6805 16.7827 13.482 15.261C13.482 15.0625 13.482 14.864 13.482 15.261C13.4238 13.6659 13.7411 12.0795 14.4083 10.6296C14.8715 9.30635 15.6654 7.78461 16.9887 7.32147M10.5709 22.4065C10.1084 22.3278 9.63437 22.3504 9.18147 22.4727C8.7845 22.605 8.51985 22.9358 8.18903 23.1343C7.85822 23.3328 7.52741 23.0682 7.65973 22.6712L7.99055 22.1419L8.18903 21.5464C8.52305 20.6188 8.78842 19.6679 8.98298 18.7014L11.3648 6.79217C10.7306 7.39854 10.1547 8.06307 9.64461 8.77705C9.11531 9.571 8.91682 11.4236 9.11531 11.622C9.19476 11.6741 9.26208 11.7427 9.31267 11.8231C9.36326 11.9035 9.39594 11.9938 9.40849 12.088C9.42105 12.1822 9.41318 12.2779 9.38542 12.3688C9.35767 12.4596 9.31067 12.5434 9.24764 12.6145C8.98299 12.9453 7.92438 12.6145 7.59357 12.2175C6.13799 10.9604 7.46125 9.43868 8.2552 8.5124C8.98299 7.65229 11.2987 5.99822 11.431 5.79974L12.0926 4.47648C12.2301 4.15545 12.4384 3.86966 12.7019 3.64051C12.9654 3.41136 13.2774 3.24478 13.6144 3.15323C13.8129 3.15323 14.276 2.95474 14.4745 3.15323C14.673 3.35172 14.4745 3.81486 14.3422 4.07951C14.0304 4.78239 13.7867 5.51352 13.6144 6.26287L12.2911 11.5559C11.6001 14.1684 10.8723 16.7711 10.1077 19.3631C9.8543 20.1989 9.54484 21.0168 9.18147 21.8111C10.637 21.4141 12.2249 21.8111 13.6805 21.7449C14.4255 21.7365 15.1636 21.6022 15.8639 21.3479C16.1947 21.2156 17.1871 20.4217 17.2533 21.2156C17.3173 21.6506 17.2351 22.0945 17.0195 22.4777C16.804 22.8609 16.4673 23.1616 16.0624 23.3328C15.5846 23.4884 15.0801 23.5452 14.5796 23.4997C14.0791 23.4542 13.5932 23.3074 13.1512 23.0682C12.3126 22.7003 11.4178 22.4766 10.5047 22.4065" fill="black"/>
</svg>
